HIERARCHY
ROOT Hips
{
    OFFSET 0.000000 0.000000 0.000000
    CHANNELS 6 Xposition Yposition Zposition Zrotation Xrotation Yrotation
    JOINT Spine
    {
        OFFSET -0.000000 14.517291 0.000000
        CHANNELS 3 Zrotation Xrotation Yrotation
        JOINT Spine1
        {
            OFFSET -0.000000 37.558300 0.000000
            CHANNELS 3 Zrotation Xrotation Yrotation
            JOINT Neck
            {
                OFFSET -0.000000 37.404057 3.400369
                CHANNELS 3 Zrotation Xrotation Yrotation
                JOINT Head
                {
                    OFFSET -0.000000 24.785618 -3.540803
                    CHANNELS 3 Zrotation Xrotation Yrotation
                    End Site
                    {
                        OFFSET -0.000000 35.408028 0.000000
                    }
                }
            }
            JOINT LeftShoulder
            {
                OFFSET 6.992933 33.973492 -0.192664
                CHANNELS 3 Zrotation Xrotation Yrotation
                JOINT LeftArm
                {
                    OFFSET 21.527611 0.000000 0.000000
                    CHANNELS 3 Zrotation Xrotation Yrotation
                    JOINT LeftForeArm
                    {
                        OFFSET 56.353916 0.000000 0.000000
                        CHANNELS 3 Zrotation Xrotation Yrotation
                        JOINT LeftHand
                        {
                            OFFSET 47.774071 0.000000 0.000000
                            CHANNELS 3 Zrotation Xrotation Yrotation
                            End Site
                            {
                                OFFSET 26.556021 0.000000 0.000000
                            }
                        }
                    }
                }
            }
            JOINT RightShoulder
            {
                OFFSET -7.065357 33.973492 -0.192664
                CHANNELS 3 Zrotation Xrotation Yrotation
                JOINT RightArm
                {
                    OFFSET -21.527611 0.000000 0.000000
                    CHANNELS 3 Zrotation Xrotation Yrotation
                    JOINT RightForeArm
                    {
                        OFFSET -56.353916 0.000000 0.000000
                        CHANNELS 3 Zrotation Xrotation Yrotation
                        JOINT RightHand
                        {
                            OFFSET -47.774071 0.000000 0.000000
                            CHANNELS 3 Zrotation Xrotation Yrotation
                            End Site
                            {
                                OFFSET -26.556021 0.000000 0.000000
                            }
                        }
                    }
                }
            }
        }
    }
    JOINT LeftUpLeg
    {
        OFFSET 17.704014 0.000000 0.000000
        CHANNELS 3 Zrotation Xrotation Yrotation
        JOINT LeftLeg
        {
            OFFSET -0.000000 -81.181816 0.000000
            CHANNELS 3 Zrotation Xrotation Yrotation
            JOINT LeftFoot
            {
                OFFSET -0.000000 -62.821102 0.000000
                CHANNELS 3 Zrotation Xrotation Yrotation
                JOINT LeftToeBase
                {
                    OFFSET -0.000000 -11.507608 26.556021
                    CHANNELS 3 Zrotation Xrotation Yrotation
                    End Site
                    {
                        OFFSET -0.000000 0.000000 7.081605
                    }
                }
            }
        }
    }
    JOINT RightUpLeg
    {
        OFFSET -17.704014 0.000000 0.000000
        CHANNELS 3 Zrotation Xrotation Yrotation
        JOINT RightLeg
        {
            OFFSET -0.000000 -81.181816 0.000000
            CHANNELS 3 Zrotation Xrotation Yrotation
            JOINT RightFoot
            {
                OFFSET -0.000000 -62.821102 0.000000
                CHANNELS 3 Zrotation Xrotation Yrotation
                JOINT RightToeBase
                {
                    OFFSET -0.000000 -11.507608 26.556021
                    CHANNELS 3 Zrotation Xrotation Yrotation
                    End Site
                    {
                        OFFSET -0.000000 0.000000 7.081605
                    }
                }
            }
        }
    }
}
MOTION
Frames:    12
Frame Time:    0.008333
-9.732810    136.792068    57.512619    -26.045826    -4.064852    -75.397133    0.698667    -6.387602    1.272454    -0.797783    -2.000399    0.397304    15.370963    -3.819736    9.598578    -6.772388    9.891446    6.791853    10.202051    3.036120    -13.547094    -11.330544    -4.676641    -18.737225    13.457162    -2.007300    -55.363274    -7.193274    7.861506    -42.376633    -12.617099    -1.255557    -5.945551    26.386791    -23.880217    36.827610    6.847914    -22.161861    106.379723    15.042999    -26.805992    30.141903    39.806194    6.978025    -4.600677    -39.214878    56.362316    7.570518    -7.173607    -35.402184    50.077782    0.000000    0.000000    0.000000    -29.490379    15.057172    -3.420957    9.004126    52.723473    -4.993706    19.356224    -30.137552    9.067455    0.000000    0.000000    0.000000    
-9.695977    136.789536    57.489967    -26.045311    -4.070074    -75.379868    0.697999    -6.376047    1.274390    -0.787148    -2.012589    0.398036    15.342918    -3.829096    9.597239    -6.752891    9.873336    6.794412    10.213598    3.027318    -13.547383    -11.328179    -4.593664    -18.713089    13.521827    -2.066558    -55.335445    -7.253602    7.857649    -42.397434    -12.629025    -1.261475    -5.932980    26.368675    -23.863039    36.838970    6.837285    -22.182274    106.353828    15.058187    -26.802813    30.161413    39.800301    6.941956    -4.603054    -39.203884    56.379261    7.555092    -7.173489    -35.387177    50.082722    0.000000    0.000000    0.000000    -29.481869    15.050123    -3.467852    8.964976    52.735825    -4.974335    19.386602    -30.144499    9.097270    0.000000    0.000000    0.000000    
-9.655502    136.786575    57.467770    -26.042637    -4.071879    -75.359917    0.672384    -6.376227    1.282531    -0.749599    -2.038132    0.401740    15.409312    -3.731779    9.594062    -6.862642    9.765247    6.779294    10.222916    3.071361    -13.609198    -11.314931    -4.633500    -18.663452    13.496552    -2.040166    -55.340458    -7.269419    7.877366    -42.397663    -12.603357    -1.258777    -5.862419    26.289251    -23.875086    36.761765    6.846592    -22.174198    106.343597    15.058522    -26.801737    30.184763    39.790722    6.896793    -4.604223    -39.186359    56.404636    7.537169    -7.172568    -35.378513    50.091885    0.000000    0.000000    0.000000    -29.471695    15.033869    -3.516882    8.936307    52.761642    -4.919050    19.354979    -30.162786    9.071261    0.000000    0.000000    0.000000    
-9.614949    136.781128    57.439041    -26.047199    -4.069478    -75.333786    0.675400    -6.346705    1.278370    -0.740842    -2.053735    0.400583    15.428489    -3.716449    9.595794    -6.908517    9.693651    6.772610    10.272593    3.043774    -13.625643    -11.340326    -4.718909    -18.616629    13.361005    -1.941481    -55.382305    -7.225308    7.892896    -42.399319    -12.611013    -1.271251    -5.852904    26.277407    -23.859163    36.756718    6.838826    -22.183304    106.328293    15.096528    -26.787300    30.202579    39.793190    6.848094    -4.663108    -39.236149    56.399612    7.568192    -7.157576    -35.378658    50.140377    0.000000    0.000000    0.000000    -29.450954    15.025394    -3.549391    8.928080    52.788052    -4.911597    19.334051    -30.169849    9.058057    0.000000    0.000000    0.000000    
-9.577529    136.776047    57.410900    -26.061287    -4.059672    -75.313622    0.695911    -6.307699    1.281515    -0.743060    -2.063981    0.401200    15.451019    -3.724108    9.598784    -6.941956    9.648678    6.765762    10.294996    3.040172    -13.617264    -11.330314    -4.738321    -18.605951    13.324966    -1.928346    -55.386330    -7.205486    7.880960    -42.416039    -12.611017    -1.274061    -5.854110    26.275249    -23.879658    36.760395    6.873279    -22.135876    106.334946    15.072611    -26.790327    30.198280    39.806469    6.810886    -4.714530    -39.275650    56.402134    7.601126    -7.146767    -35.370438    50.163242    0.000000    0.000000    0.000000    -29.419439    15.020758    -3.581273    8.902619    52.816788    -4.889625    19.340664    -30.178551    9.063474    0.000000    0.000000    0.000000    
-9.539877    136.769897    57.382004    -26.076427    -4.054028    -75.283897    0.703951    -6.268648    1.279171    -0.731231    -2.068660    0.400601    15.446611    -3.743707    9.590607    -6.944563    9.620534    6.753454    10.311275    3.035771    -13.615294    -11.323419    -4.797322    -18.603699    13.272662    -1.877733    -55.384869    -7.191431    7.898516    -42.425289    -12.609921    -1.281690    -5.854797    26.261816    -23.887293    36.752689    6.895999    -22.104128    106.339577    15.082743    -26.784002    30.208090    39.817768    6.768715    -4.787068    -39.323475    56.399288    7.621372    -7.139209    -35.385067    50.205067    0.000000    0.000000    0.000000    -29.394985    15.026881    -3.585226    8.927967    52.831841    -4.920627    19.344757    -30.189808    9.067369    0.000000    0.000000    0.000000    
-9.503751    136.764984    57.350056    -26.093149    -4.042848    -75.262665    0.718135    -6.234871    1.278935    -0.722945    -2.065843    0.400504    15.465618    -3.738777    9.591386    -6.972003    9.570824    6.746768    10.328524    3.031875    -13.622789    -11.310810    -4.804641    -18.581888    13.246974    -1.882278    -55.377090    -7.172257    7.871519    -42.421501    -12.601400    -1.286435    -5.854157    26.248821    -23.902412    36.750038    6.918459    -22.044481    106.330597    15.047588    -26.757769    30.232918    39.838078    6.736568    -4.848467    -39.367081    56.390774    7.640585    -7.104508    -35.363140    50.247993    0.000000    0.000000    0.000000    -29.359463    15.025680    -3.596717    8.939353    52.853016    -4.899935    19.301344    -30.219311    8.998929    0.000000    0.000000    0.000000    
-9.467789    136.761093    57.325405    -26.105186    -4.042298    -75.238792    0.736664    -6.211377    1.284014    -0.741678    -2.049082    0.401732    15.485821    -3.753650    9.588478    -6.976475    9.553915    6.736570    10.346664    3.014653    -13.653222    -11.296081    -4.730063    -18.549175    13.313221    -1.964586    -55.327377    -7.187031    7.824866    -42.442799    -12.578032    -1.304229    -5.862376    26.239708    -23.912258    36.742352    6.965577    -21.969595    106.338936    15.010869    -26.753023    30.229944    39.849377    6.709834    -4.915366    -39.425079    56.362492    7.680161    -7.070088    -35.347061    50.269157    0.000000    0.000000    0.000000    -29.345171    15.031211    -3.584127    8.983947    52.858181    -4.945026    19.310467    -30.235575    8.995749    0.000000    0.000000    0.000000    
-9.431423    136.758408    57.295883    -26.112238    -4.046626    -75.216064    0.743622    -6.192129    1.292466    -0.759239    -2.030678    0.404227    15.522565    -3.743566    9.578022    -7.008381    9.512334    6.715789    10.375978    2.992728    -13.684148    -11.286707    -4.718909    -18.529459    13.328597    -1.965602    -55.285042    -7.195691    7.831351    -42.475792    -12.547903    -1.309681    -5.865107    26.231728    -23.929192    36.730259    6.979080    -21.906670    106.328659    14.966681    -26.715765    30.246386    39.851212    6.679105    -4.948867    -39.432388    56.355885    7.673615    -7.051773    -35.336132    50.291828    0.000000    0.000000    0.000000    -29.334333    15.030631    -3.568404    9.036971    52.868984    -4.976825    19.272995    -30.260269    8.962873    0.000000    0.000000    0.000000    
-9.387946    136.762909    57.269382    -26.106363    -4.056974    -75.192757    0.743637    -6.178082    1.298563    -0.767842    -2.022200    0.406290    15.534075    -3.734516    9.570089    -7.022097    9.486588    6.704220    10.406491    3.003017    -13.702124    -11.284873    -4.713655    -18.521358    13.350870    -1.979891    -55.249184    -7.185784    7.820238    -42.480854    -12.538619    -1.314342    -5.863478    26.232567    -23.939533    36.717239    6.984740    -21.838852    106.317474    14.892969    -26.677946    30.211731    39.838608    6.643515    -4.962626    -39.418110    56.347645    7.666064    -7.055747    -35.318153    50.274769    0.000000    0.000000    0.000000    -29.327549    15.024626    -3.585239    9.037634    52.872677    -4.978818    19.262636    -30.275074    8.961534    0.000000    0.000000    0.000000    
-9.345070    136.769775    57.240059    -26.097343    -4.064480    -75.173233    0.730160    -6.166679    1.308455    -0.752163    -2.010459    0.410162    15.535026    -3.721396    9.560679    -7.020537    9.457845    6.694337    10.413114    3.004942    -13.714225    -11.214969    -4.959173    -18.510166    13.041886    -1.693267    -55.319607    -7.007166    7.879587    -42.437473    -12.533660    -1.326450    -5.865635    26.226685    -23.933954    36.695896    6.999374    -21.779453    106.314804    14.840400    -26.653477    30.192320    39.828308    6.610790    -4.932335    -39.358170    56.355171    7.615032    -7.051731    -35.288887    50.258625    0.000000    0.000000    0.000000    -29.318933    15.007865    -3.576056    9.087214    52.877148    -4.975699    19.218483    -30.300993    8.877058    0.000000    0.000000    0.000000    
-9.297910    136.781754    57.209503    -26.077187    -4.070362    -75.143234    0.709222    -6.159415    1.312452    -0.725923    -2.006239    0.412366    15.544833    -3.708471    9.554100    -7.030263    9.433680    6.685379    10.404702    3.010442    -13.738558    -11.241613    -4.760306    -18.502863    13.296639    -1.938766    -55.226120    -7.130342    7.807542    -42.479748    -12.524305    -1.332234    -5.883433    26.207483    -23.893177    36.684753    6.997087    -21.778847    106.309052    14.828010    -26.651949    30.195631    39.820160    6.560717    -4.907445    -39.314663    56.352196    7.574177    -7.060070    -35.267384    50.245975    0.000000    0.000000    0.000000    -29.299658    14.993008    -3.577963    9.113741    52.867001    -4.975001    19.180391    -30.325626    8.810201    0.000000    0.000000    0.000000    
